<?xml version="1.0" encoding="UTF-8" standalone="no"?>
<svg
   id="Layer_1"
   data-name="Layer 1"
   version="1.1"
   viewBox="0 0 616963.74 47699.791"
   sodipodi:docname="EVO-TEH logo_white.svg"
   width="616963.75"
   height="47699.793"
   xmlns:inkscape="http://www.inkscape.org/namespaces/inkscape"
   xmlns:sodipodi="http://sodipodi.sourceforge.net/DTD/sodipodi-0.dtd"
   xmlns="http://www.w3.org/2000/svg"
   xmlns:svg="http://www.w3.org/2000/svg">
  <sodipodi:namedview
     id="namedview29"
     pagecolor="#ffffff"
     bordercolor="#000000"
     borderopacity="0.25"
     inkscape:showpageshadow="2"
     inkscape:pageopacity="0.0"
     inkscape:pagecheckerboard="0"
     inkscape:deskcolor="#d1d1d1" />
  <defs
     id="defs1">
    <style
       id="style1">
      .cls-1 {
        fill: #fff;
        stroke-width: 0px;
      }
    </style>
  </defs>
  <g
     id="g29"
     transform="translate(-72441.462,-142623.13)">
    <path
       class="cls-1"
       d="M 170.63,239.59 H 89.65 c -3.77,0 -6.82,3.05 -6.82,6.82 0,3.77 3.05,6.82 6.82,6.82 h 80.98 c 3.77,0 6.82,-3.05 6.82,-6.82 0,-3.77 -3.05,-6.82 -6.82,-6.82 z"
       id="path19" />
    <path
       class="cls-1"
       d="m 89.66,286.47 h 47.79 c 3.77,0 6.82,-3.05 6.82,-6.82 0,-3.77 -3.05,-6.82 -6.82,-6.82 H 89.66 c -3.77,0 -6.82,3.05 -6.82,6.82 0,3.77 3.05,6.82 6.82,6.82 z"
       id="path20" />
    <path
       class="cls-1"
       d="M 170.63,306.08 H 89.65 c -3.77,0 -6.82,3.05 -6.82,6.82 0,3.77 3.05,6.82 6.82,6.82 h 80.98 c 3.77,0 6.82,-3.05 6.82,-6.82 0,-3.77 -3.05,-6.82 -6.82,-6.82 z"
       id="path21" />
    <path
       class="cls-1"
       d="m 666.21,239.59 h -80.98 c -3.77,0 -6.82,3.05 -6.82,6.82 0,3.77 3.05,6.82 6.82,6.82 h 80.98 c 3.77,0 6.82,-3.05 6.82,-6.82 0,-3.77 -3.05,-6.82 -6.82,-6.82 z"
       id="path22" />
    <path
       class="cls-1"
       d="m 585.23,286.47 h 47.79 c 3.77,0 6.82,-3.05 6.82,-6.82 0,-3.77 -3.05,-6.82 -6.82,-6.82 h -47.79 c -3.77,0 -6.82,3.05 -6.82,6.82 0,3.77 3.05,6.82 6.82,6.82 z"
       id="path23" />
    <path
       class="cls-1"
       d="m 461.18,272.84 h -26.66 c -3.77,0 -6.82,3.05 -6.82,6.82 0,3.77 3.05,6.82 6.82,6.82 h 26.66 c 3.77,0 6.82,-3.05 6.82,-6.82 0,-3.77 -3.05,-6.82 -6.82,-6.82 z"
       id="path24" />
    <path
       class="cls-1"
       d="m 666.21,306.08 h -80.98 c -3.77,0 -6.82,3.05 -6.82,6.82 0,3.77 3.05,6.82 6.82,6.82 h 80.98 c 3.77,0 6.82,-3.05 6.82,-6.82 0,-3.77 -3.05,-6.82 -6.82,-6.82 z"
       id="path25" />
    <path
       class="cls-1"
       d="m 781.45,239.59 c -3.77,0 -6.82,3.05 -6.82,6.82 v 26.42 h -65.8 v -26.42 c 0,-3.77 -3.05,-6.82 -6.82,-6.82 -3.77,0 -6.82,3.05 -6.82,6.82 v 66.49 c 0,3.77 3.05,6.82 6.82,6.82 3.77,0 6.82,-3.05 6.82,-6.82 v -26.42 h 65.8 v 26.42 c 0,3.77 3.05,6.82 6.82,6.82 3.77,0 6.82,-3.05 6.82,-6.82 v -66.49 c 0,-3.77 -3.05,-6.82 -6.82,-6.82 z"
       id="path26" />
    <path
       class="cls-1"
       d="m 549.43,239.59 h -80.98 c -3.77,0 -6.82,3.05 -6.82,6.82 0,3.77 3.05,6.82 6.82,6.82 h 33.67 v 59.67 c 0,3.77 3.05,6.82 6.82,6.82 v 0 c 3.77,0 6.82,-3.05 6.82,-6.82 v -59.67 h 33.67 c 3.77,0 6.82,-3.05 6.82,-6.82 0,-3.77 -3.05,-6.82 -6.82,-6.82 z"
       id="path27" />
    <path
       class="cls-1"
       d="m 395.85,239.59 h -80.98 c -3.77,0 -6.82,3.05 -6.82,6.82 v 66.49 0 c 0,3.77 3.05,6.82 6.82,6.82 h 80.98 c 3.77,0 6.82,-3.05 6.82,-6.82 v 0 -66.49 c 0,-3.77 -3.05,-6.82 -6.82,-6.82 z m -6.81,64.16 c 0,1.28 -1.04,2.33 -2.33,2.33 h -62.69 c -1.28,0 -2.33,-1.04 -2.33,-2.33 v -48.19 c 0,-1.28 1.04,-2.33 2.33,-2.33 h 62.69 c 1.28,0 2.33,1.04 2.33,2.33 z"
       id="path28" />
    <path
       class="cls-1"
       d="m 282.64,240.47 c -3.12,-1.8 -7.11,-0.73 -8.91,2.39 l -33.19,57.48 -33.19,-57.48 c -1.8,-3.12 -5.79,-4.19 -8.91,-2.39 -3.12,1.8 -4.19,5.79 -2.39,8.91 l 38.73,67.08 c 1.2,2.09 3.39,3.25 5.63,3.26 0.04,0 0.08,0 0.13,0 0.04,0 0.08,0 0.13,0 2.25,0 4.43,-1.17 5.63,-3.26 l 38.73,-67.08 c 1.8,-3.12 0.73,-7.11 -2.39,-8.91 z"
       id="path29" />
  </g>
</svg>
