<?xml version="1.0" encoding="UTF-8"?>
<svg id="Layer_1" data-name="Layer 1" xmlns="http://www.w3.org/2000/svg" version="1.1" viewBox="0 0 874.58 595.28">
  <defs>
    <style>
      .cls-1 {
        fill: #231f20;
        stroke-width: 0px;
      }
    </style>
  </defs>
  <g>
    <path class="cls-1" d="M233.38,372.99v2.02h-9.8v-16.83h9.53v2h-7.42v5.2h6.8v1.96h-6.8v5.65h7.69Z"/>
    <path class="cls-1" d="M258.7,358.18l-6.69,16.83h-1.95l-6.82-16.83h2.33l5.46,13.67,5.35-13.67h2.31Z"/>
    <path class="cls-1" d="M268.18,366.6c0-4.97,3.72-8.7,8.81-8.7s8.81,3.73,8.81,8.7-3.72,8.7-8.81,8.7-8.81-3.73-8.81-8.7ZM283.64,366.6c0-3.8-2.83-6.64-6.66-6.64s-6.66,2.86-6.66,6.64,2.83,6.63,6.66,6.63,6.66-2.84,6.66-6.63Z"/>
    <path class="cls-1" d="M307.18,373.03v1.98h-9.51v-16.83h2.11v14.86h7.4Z"/>
    <path class="cls-1" d="M317.48,368.74v-10.57h2.13v10.41c0,2.77,1.86,4.64,4.49,4.64s4.47-1.87,4.47-4.64v-10.41h2.13v10.57c0,3.84-2.82,6.55-6.6,6.55s-6.62-2.71-6.62-6.55Z"/>
    <path class="cls-1" d="M354.06,360.16h-5.12v14.86h-2.11v-14.86h-5.12v-1.98h12.36v1.98Z"/>
    <path class="cls-1" d="M365.28,358.18h2.11v16.83h-2.11v-16.83Z"/>
    <path class="cls-1" d="M379.26,366.6c0-4.97,3.72-8.7,8.81-8.7s8.81,3.73,8.81,8.7-3.72,8.7-8.81,8.7-8.81-3.73-8.81-8.7ZM394.73,366.6c0-3.8-2.83-6.64-6.66-6.64s-6.66,2.86-6.66,6.64,2.83,6.63,6.66,6.63,6.66-2.84,6.66-6.63Z"/>
    <path class="cls-1" d="M422.18,358.18v16.83h-1.78l-9.58-13.14v13.14h-2.07v-16.83h1.91l9.45,12.98v-12.98h2.07Z"/>
    <path class="cls-1" d="M448.7,369.82h2.15c0,2.09,1.7,3.34,4.04,3.34,2.11,0,3.78-1.12,3.78-2.9,0-1.97-2-2.43-4.18-2.94-2.6-.62-5.47-1.31-5.47-4.67,0-2.91,2.25-4.68,5.73-4.68s5.62,1.94,5.62,4.99h-2.09c0-1.87-1.53-2.96-3.58-2.96s-3.58.97-3.58,2.57c0,1.85,1.93,2.31,4.09,2.82,2.65.64,5.63,1.35,5.63,4.86,0,3.18-2.59,4.99-5.94,4.99-3.71,0-6.21-2.09-6.21-5.4Z"/>
    <path class="cls-1" d="M472.67,358.18h2.11v16.83h-2.11v-16.83Z"/>
    <path class="cls-1" d="M501.22,358.18v16.83h-1.78l-9.58-13.14v13.14h-2.07v-16.83h1.91l9.45,12.98v-12.98h2.07Z"/>
    <path class="cls-1" d="M513.07,366.6c0-5.05,3.63-8.68,8.63-8.68,3.89,0,7.02,2.32,7.98,5.95h-2.16c-.9-2.43-3.06-3.89-5.82-3.89-3.76,0-6.47,2.74-6.47,6.62s2.71,6.61,6.47,6.61c2.83,0,5.03-1.55,5.9-4.13h2.15c-.96,3.81-4.09,6.2-8.06,6.2-5,0-8.63-3.63-8.63-8.68Z"/>
    <path class="cls-1" d="M551.09,372.99v2.02h-9.8v-16.83h9.53v2h-7.42v5.2h6.8v1.96h-6.8v5.65h7.69Z"/>
    <path class="cls-1" d="M587.04,373.12v1.89h-10.74v-.64c7.29-7.67,8.13-9.02,8.13-11.02,0-1.63-1.13-2.73-2.83-2.73s-2.95,1.13-2.95,2.75v.39h-1.98v-.39c0-2.8,2.01-4.64,4.93-4.64s4.83,1.9,4.83,4.62c0,2.21-.83,3.86-6.23,9.77h6.84Z"/>
    <path class="cls-1" d="M597.76,367c0-5.11,2.37-8.27,6.19-8.27s6.17,3.16,6.17,8.27-2.39,8.29-6.17,8.29-6.19-3.2-6.19-8.29ZM608.12,367c0-3.99-1.59-6.38-4.17-6.38s-4.19,2.39-4.19,6.38,1.57,6.4,4.19,6.4,4.17-2.4,4.17-6.4Z"/>
    <path class="cls-1" d="M625.17,359.02v15.99h-1.96v-14.17h-3.07v-1.82h5.03Z"/>
    <path class="cls-1" d="M647.52,373.12v1.89h-10.75v-.64c7.29-7.67,8.13-9.02,8.13-11.02,0-1.63-1.13-2.73-2.83-2.73s-2.95,1.13-2.95,2.75v.39h-1.98v-.39c0-2.8,2.01-4.64,4.93-4.64s4.83,1.9,4.83,4.62c0,2.21-.83,3.86-6.22,9.77h6.84Z"/>
  </g>
  <g>
    <path class="cls-1" d="M170.63,239.59h-80.98c-3.77,0-6.82,3.05-6.82,6.82s3.05,6.82,6.82,6.82h80.98c3.77,0,6.82-3.05,6.82-6.82s-3.05-6.82-6.82-6.82Z"/>
    <path class="cls-1" d="M89.66,286.47h47.79c3.77,0,6.82-3.05,6.82-6.82s-3.05-6.82-6.82-6.82h-47.79c-3.77,0-6.82,3.05-6.82,6.82s3.05,6.82,6.82,6.82Z"/>
    <path class="cls-1" d="M170.63,306.08h-80.98c-3.77,0-6.82,3.05-6.82,6.82s3.05,6.82,6.82,6.82h80.98c3.77,0,6.82-3.05,6.82-6.82s-3.05-6.82-6.82-6.82Z"/>
    <path class="cls-1" d="M666.21,239.59h-80.98c-3.77,0-6.82,3.05-6.82,6.82s3.05,6.82,6.82,6.82h80.98c3.77,0,6.82-3.05,6.82-6.82s-3.05-6.82-6.82-6.82Z"/>
    <path class="cls-1" d="M585.23,286.47h47.79c3.77,0,6.82-3.05,6.82-6.82s-3.05-6.82-6.82-6.82h-47.79c-3.77,0-6.82,3.05-6.82,6.82s3.05,6.82,6.82,6.82Z"/>
    <path class="cls-1" d="M461.18,272.84h-26.66c-3.77,0-6.82,3.05-6.82,6.82s3.05,6.82,6.82,6.82h26.66c3.77,0,6.82-3.05,6.82-6.82s-3.05-6.82-6.82-6.82Z"/>
    <path class="cls-1" d="M666.21,306.08h-80.98c-3.77,0-6.82,3.05-6.82,6.82s3.05,6.82,6.82,6.82h80.98c3.77,0,6.82-3.05,6.82-6.82s-3.05-6.82-6.82-6.82Z"/>
    <path class="cls-1" d="M781.45,239.59c-3.77,0-6.82,3.05-6.82,6.82v26.42h-65.8v-26.42c0-3.77-3.05-6.82-6.82-6.82s-6.82,3.05-6.82,6.82v66.49c0,3.77,3.05,6.82,6.82,6.82s6.82-3.05,6.82-6.82v-26.42h65.8v26.42c0,3.77,3.05,6.82,6.82,6.82s6.82-3.05,6.82-6.82v-66.49c0-3.77-3.05-6.82-6.82-6.82Z"/>
    <path class="cls-1" d="M549.43,239.59h-80.98c-3.77,0-6.82,3.05-6.82,6.82s3.05,6.82,6.82,6.82h33.67v59.67c0,3.77,3.05,6.82,6.82,6.82h0c3.77,0,6.82-3.05,6.82-6.82v-59.67h33.67c3.77,0,6.82-3.05,6.82-6.82s-3.05-6.82-6.82-6.82Z"/>
    <path class="cls-1" d="M395.85,239.59h-80.98c-3.77,0-6.82,3.05-6.82,6.82v66.49h0c0,3.77,3.05,6.82,6.82,6.82h80.98c3.77,0,6.82-3.05,6.82-6.82h0v-66.49c0-3.77-3.05-6.82-6.82-6.82ZM389.04,303.75c0,1.28-1.04,2.33-2.33,2.33h-62.69c-1.28,0-2.33-1.04-2.33-2.33v-48.19c0-1.28,1.04-2.33,2.33-2.33h62.69c1.28,0,2.33,1.04,2.33,2.33v48.19Z"/>
    <path class="cls-1" d="M282.64,240.47c-3.12-1.8-7.11-.73-8.91,2.39l-33.19,57.48-33.19-57.48c-1.8-3.12-5.79-4.19-8.91-2.39-3.12,1.8-4.19,5.79-2.39,8.91l38.73,67.08c1.2,2.09,3.39,3.25,5.63,3.26.04,0,.08,0,.13,0,.04,0,.08,0,.13,0,2.25,0,4.43-1.17,5.63-3.26l38.73-67.08c1.8-3.12.73-7.11-2.39-8.91Z"/>
  </g>
</svg>