<?xml version="1.0" encoding="UTF-8"?>
<!DOCTYPE svg PUBLIC "-//W3C//DTD SVG 1.0//EN" "http://www.w3.org/TR/2001/REC-SVG-20010904/DTD/svg10.dtd">
<!-- Creator: CorelDRAW 2018 (64-Bit Evaluation Version) -->
<svg xmlns="http://www.w3.org/2000/svg" xml:space="preserve" width="5.63584in" height="5.63584in" version="1.0" style="shape-rendering:geometricPrecision; text-rendering:geometricPrecision; image-rendering:optimizeQuality; fill-rule:evenodd; clip-rule:evenodd"
viewBox="0 0 646.3 646.3"
 xmlns:xlink="http://www.w3.org/1999/xlink">
 <defs>
  <style type="text/css">
   <![CDATA[
    .str0 {stroke:#2B2A29;stroke-width:0.8;stroke-miterlimit:2.61313}
    .fil0 {fill:black}
    .fil1 {fill:#FEFEFE;fill-rule:nonzero}
   ]]>
  </style>
 </defs>
 <g id="Layer_x0020_1">
  <metadata id="CorelCorpID_0Corel-Layer"/>
  <polygon class="fil0 str0" points="0.4,0.4 645.9,0.4 645.9,645.9 0.4,645.9 "/>
  <path class="fil1" d="M111.53 363.06l0 -71.14 -26.57 0 0 -9.46 63.83 0 0 9.46 -26.57 0 0 71.14 -10.69 0zm77.19 -7.32c-3.68,3.13 -7.22,5.33 -10.62,6.62 -3.4,1.3 -7.03,1.93 -10.94,1.93 -6.42,0 -11.35,-1.56 -14.8,-4.69 -3.45,-3.12 -5.18,-7.11 -5.18,-11.97 0,-2.85 0.66,-5.46 1.95,-7.82 1.31,-2.36 3.02,-4.24 5.12,-5.66 2.12,-1.43 4.48,-2.51 7.13,-3.25 1.95,-0.51 4.9,-0.99 8.82,-1.48 7.99,-0.94 13.9,-2.08 17.67,-3.4 0.04,-1.35 0.06,-2.21 0.06,-2.57 0,-4.01 -0.94,-6.85 -2.81,-8.5 -2.53,-2.23 -6.3,-3.34 -11.29,-3.34 -4.67,0 -8.12,0.83 -10.34,2.46 -2.23,1.63 -3.86,4.52 -4.94,8.69l-9.68 -1.35c0.88,-4.15 2.33,-7.5 4.35,-10.06 2.03,-2.55 4.95,-4.5 8.78,-5.89 3.81,-1.37 8.25,-2.06 13.28,-2.06 4.99,0 9.06,0.58 12.19,1.76 3.11,1.18 5.42,2.65 6.89,4.43 1.46,1.78 2.49,4.03 3.1,6.75 0.32,1.69 0.49,4.73 0.49,9.1l0 13.13c0,9.17 0.21,14.97 0.62,17.43 0.4,2.46 1.22,4.8 2.42,7.05l-10.36 0c-0.99,-2.08 -1.63,-4.52 -1.91,-7.32zm-0.79 -21.95c-3.6,1.46 -9.01,2.7 -16.21,3.71 -4.09,0.58 -6.98,1.24 -8.67,1.97 -1.69,0.73 -2.98,1.8 -3.9,3.19 -0.92,1.41 -1.39,2.96 -1.39,4.69 0,2.61 0.99,4.8 3,6.55 2.01,1.74 4.94,2.63 8.78,2.63 3.81,0 7.2,-0.83 10.19,-2.49 2.96,-1.65 5.16,-3.92 6.55,-6.79 1.07,-2.23 1.59,-5.51 1.59,-9.85l0.06 -3.6zm29.71 29.27l0 -80.6 9.91 0 0 29.01c4.6,-5.38 10.39,-8.07 17.41,-8.07 4.3,0 8.03,0.84 11.22,2.55 3.17,1.71 5.44,4.05 6.81,7.05 1.37,3 2.04,7.37 2.04,13.08l0 36.98 -9.91 0 0 -36.94c0,-4.93 -1.07,-8.54 -3.19,-10.79 -2.14,-2.25 -5.14,-3.38 -9.04,-3.38 -2.91,0 -5.65,0.75 -8.22,2.27 -2.57,1.52 -4.39,3.58 -5.5,6.19 -1.09,2.59 -1.63,6.17 -1.63,10.75l0 31.89 -9.91 0zm67.08 -69.34l0 -11.26 9.91 0 0 11.26 -9.91 0zm0 69.34l0 -58.42 9.91 0 0 58.42 -9.91 0zm29.37 0l0 -58.42 8.89 0 0 8.95c2.27,-4.15 4.37,-6.89 6.3,-8.2 1.93,-1.33 4.05,-1.99 6.36,-1.99 3.34,0 6.74,1.05 10.19,3.13l-3.53 9.14c-2.4,-1.35 -4.8,-2.03 -7.2,-2.03 -2.16,0 -4.09,0.66 -5.8,1.95 -1.71,1.29 -2.93,3.09 -3.66,5.4 -1.11,3.51 -1.65,7.35 -1.65,11.54l0 30.52 -9.91 0zm38.36 -29.21c0,-10.79 3,-18.78 9.02,-23.98 5.01,-4.32 11.15,-6.47 18.37,-6.47 8.01,0 14.58,2.63 19.68,7.88 5.08,5.23 7.64,12.49 7.64,21.74 0,7.5 -1.13,13.4 -3.38,17.69 -2.25,4.3 -5.53,7.64 -9.85,10.02 -4.3,2.38 -9.01,3.56 -14.09,3.56 -8.18,0 -14.78,-2.61 -19.83,-7.84 -5.05,-5.23 -7.56,-12.78 -7.56,-22.61zm10.13 0.02c0,7.47 1.63,13.06 4.9,16.75 3.28,3.71 7.39,5.57 12.36,5.57 4.92,0 9.01,-1.86 12.29,-5.59 3.26,-3.73 4.9,-9.42 4.9,-17.05 0,-7.2 -1.65,-12.66 -4.93,-16.36 -3.28,-3.71 -7.37,-5.57 -12.25,-5.57 -4.97,0 -9.08,1.84 -12.36,5.53 -3.26,3.7 -4.9,9.27 -4.9,16.72zm76.63 29.19l-22.05 -58.42 10.6 0 12.5 34.99c1.35,3.77 2.61,7.69 3.75,11.76 0.88,-3.08 2.1,-6.77 3.7,-11.11l12.98 -35.65 10.17 0 -22.12 58.42 -9.53 0zm44.79 -69.34l0 -11.26 9.91 0 0 11.26 -9.91 0zm0 69.34l0 -58.42 9.91 0 0 58.42 -9.91 0zm67.64 -21.39l9.68 1.35c-1.07,6.66 -3.77,11.86 -8.14,15.63 -4.37,3.77 -9.76,5.65 -16.12,5.65 -7.97,0 -14.39,-2.61 -19.23,-7.82 -4.86,-5.22 -7.28,-12.68 -7.28,-22.4 0,-6.3 1.05,-11.8 3.13,-16.53 2.08,-4.71 5.25,-8.26 9.53,-10.6 4.26,-2.37 8.89,-3.55 13.92,-3.55 6.32,0 11.52,1.6 15.53,4.8 4.03,3.21 6.62,7.77 7.75,13.66l-9.57 1.46c-0.92,-3.92 -2.53,-6.87 -4.88,-8.86 -2.33,-1.97 -5.14,-2.96 -8.44,-2.96 -4.99,0 -9.04,1.78 -12.18,5.35 -3.11,3.58 -4.67,9.21 -4.67,16.94 0,7.84 1.5,13.53 4.5,17.07 3.02,3.55 6.94,5.33 11.76,5.33 3.9,0 7.15,-1.18 9.74,-3.56 2.61,-2.36 4.26,-6.02 4.95,-10.96zm-22.74 -44.24l7.2 -15.42 13.06 0 -12.04 15.42 -8.22 0z"/>
 </g>
</svg>
