<?xml version="1.0" encoding="UTF-8"?>
<svg xmlns="http://www.w3.org/2000/svg" viewBox="0 0 1785.83 510.24">
  <defs>
    <style>.cls-1{fill:#fff;}.cls-2{fill:#e40524;}.cls-3{fill:#0063a3;}</style>
  </defs>
  <g id="HOHEITSZONE">
    <path class="cls-1" d="M0,510.24V85A85.14,85.14,0,0,1,85,0H1700.79a85.14,85.14,0,0,1,85,85v425.2Z"></path>
  </g>
  <g id="LOGOTYPE">
    <rect class="cls-2" x="42.52" y="333.07" width="1700.79" height="134.65"></rect>
    <path class="cls-3" d="M1700.79,42.52H85A42.52,42.52,0,0,0,42.52,85v212.6H1743.31V85A42.52,42.52,0,0,0,1700.79,42.52Z"></path>
    <path class="cls-1" d="M144,361.42,135.8,399c-1.7,8.17-2.65,14-4,23.12h-.32c-1.38-9.12-2.33-14.64-4-22.8l-8.27-37.85H93.49l-5.62,73.69H104.2l2.34-41.46c.42-7.63.42-13.57.52-21.31l.11-.11c1.38,7.64,2.65,14,4.24,21.42l8.8,41.46h22.06l8.8-41.46c1.59-7.74,2.86-13.78,4.24-21.42h.1c0,7.74.11,13.89.53,21.32l2.23,41.56h17.28l-5.51-73.69Z"></path>
    <path class="cls-1" d="M225.44,359.83c-18.66,0-28.73,7.74-28.73,38.91s9.11,38,27.67,38,28.84-7.74,28.84-38.81S244,359.83,225.44,359.83Zm-.53,63.83c-8.38,0-11.45-4.46-11.45-25.45s3.07-25.34,11.45-25.34,11.56,4.45,11.56,25.45S233.39,423.66,224.91,423.66Z"></path>
    <path class="cls-1" d="M315,395.35C320.89,392.7,325,387.82,325,379c0-13.15-6.47-17.6-26-17.6H277v73.69h21.73c19.83,0,28.1-8.17,28.1-22.9C326.83,402.13,321.42,397.36,315,395.35ZM293.64,374h4.88c7.74,0,10.07,1.8,10.07,7.74,0,6.78-3,9.43-10.28,9.43h-4.67Zm5.52,48.45h-5.52V403.41h5.41c8.69,0,10.92,2.75,10.92,9.22S307.21,422.49,299.16,422.49Z"></path>
    <rect class="cls-1" x="349.84" y="361.42" width="16.65" height="73.69"></rect>
    <polygon class="cls-1" points="408.66 361.42 392.02 361.42 392.02 435.11 431.14 435.11 431.14 421.54 408.66 421.54 408.66 361.42"></polygon>
    <path class="cls-1" d="M495.74,397.57A184.43,184.43,0,0,0,497,417.4h-.1c-2.55-7.74-4.56-13-7.42-19.83l-15.7-36.15H452.38v73.69h14.31V399c0-5.62-.64-12.19-1.27-19.82h.21c2.44,7.74,4.56,13.14,7.32,19.82l15.58,36.16h21.52V361.42H495.74Z"></path>
    <rect class="cls-1" x="535.75" y="361.42" width="16.65" height="73.69"></rect>
    <path class="cls-1" d="M645.48,391.43c-10.18-5.73-12.72-7.64-12.72-11.88s3.08-6.89,10.07-6.89a44.05,44.05,0,0,1,13.89,2.12l1.59-12.41A48.16,48.16,0,0,0,643.15,360c-17.92,0-25.76,8.06-25.76,21,0,11,4.13,15.27,16.32,22.48,10.71,6,13.15,7.85,13.15,12.51,0,5-3.39,7.85-10.49,7.85a61.82,61.82,0,0,1-16.23-2.44l-1.59,12.4a62,62,0,0,0,17.5,2.66c18.23,0,26.4-8.59,26.4-22.48C662.45,403,658.74,399.16,645.48,391.43Z"></path>
    <path class="cls-1" d="M698.43,361.42l-18.24,73.69h16.33l4.14-17.71h19.72l4,17.71H741.9l-18.34-73.69Zm4.67,43.15,3.81-17.28c1.38-5.51,2.33-10.18,3.4-15.59h.1c1.17,5.3,2.12,10,3.4,15.17l4.13,17.7Z"></path>
    <path class="cls-1" d="M806.61,397.57a181.88,181.88,0,0,0,1.27,19.83h-.11c-2.54-7.74-4.56-13-7.42-19.83l-15.69-36.15H763.24v73.69h14.32V399c0-5.62-.64-12.19-1.28-19.82h.22c2.43,7.74,4.56,13.14,7.31,19.82l15.59,36.16h21.52V361.42H806.61Z"></path>
    <rect class="cls-1" x="846.62" y="361.42" width="16.65" height="73.69"></rect>
    <polygon class="cls-1" points="884.18 374.88 901.46 374.88 901.46 435.11 918.11 435.11 918.11 374.88 934.97 374.88 934.97 361.42 884.18 361.42 884.18 374.88"></polygon>
    <path class="cls-1" d="M963.86,361.42l-18.24,73.69H962l4.14-17.71h19.72l4,17.71h17.5L989,361.42Zm4.66,43.15,3.82-17.28c1.38-5.51,2.33-10.18,3.39-15.59h.11c1.17,5.3,2.12,10,3.39,15.17l4.14,17.7Z"></path>
    <path class="cls-1" d="M1077.65,381.46c0-15.69-6.36-20-26.29-20h-22.69v73.69h16.64V403.94h3.61l12.41,31.17h18.76l-14.84-34C1073.62,398.32,1077.65,392.38,1077.65,381.46Zm-26.61,10h-5.73V374H1051c7.85,0,10.18,2,10.18,7.95C1061.22,388.46,1058.78,391.43,1051,391.43Z"></path>
    <path class="cls-1" d="M1145,397.57a181.88,181.88,0,0,0,1.27,19.83h-.11c-2.54-7.74-4.56-13-7.42-19.83L1123,361.42h-21.42v73.69h14.32V399c0-5.62-.64-12.19-1.28-19.82h.22c2.44,7.74,4.56,13.14,7.31,19.82l15.59,36.16h21.52V361.42H1145Z"></path>
    <rect class="cls-1" x="1184.99" y="361.42" width="16.65" height="73.69"></rect>
    <path class="cls-1" d="M1294.72,391.43c-10.18-5.73-12.72-7.64-12.72-11.88s3.07-6.89,10.07-6.89a44.05,44.05,0,0,1,13.89,2.12l1.59-12.41a48.16,48.16,0,0,0-15.16-2.33c-17.92,0-25.77,8.06-25.77,21,0,11,4.14,15.27,16.33,22.48,10.71,6,13.15,7.85,13.15,12.51,0,5-3.39,7.85-10.5,7.85a61.68,61.68,0,0,1-16.22-2.44l-1.59,12.4a62,62,0,0,0,17.49,2.66c18.24,0,26.4-8.59,26.4-22.48C1311.68,403,1308,399.16,1294.72,391.43Z"></path>
    <rect class="cls-1" x="1333.86" y="361.42" width="16.65" height="73.69"></rect>
    <path class="cls-1" d="M1401.28,391.43c-10.18-5.73-12.72-7.64-12.72-11.88s3.07-6.89,10.07-6.89a44.05,44.05,0,0,1,13.89,2.12l1.59-12.41A48.16,48.16,0,0,0,1399,360c-17.92,0-25.76,8.06-25.76,21,0,11,4.13,15.27,16.32,22.48,10.71,6,13.15,7.85,13.15,12.51,0,5-3.39,7.85-10.5,7.85a61.75,61.75,0,0,1-16.22-2.44l-1.59,12.4a62,62,0,0,0,17.5,2.66c18.23,0,26.4-8.59,26.4-22.48C1418.25,403,1414.53,399.16,1401.28,391.43Z"></path>
    <polygon class="cls-1" points="1435.57 374.88 1452.85 374.88 1452.85 435.11 1469.5 435.11 1469.5 374.88 1486.36 374.88 1486.36 361.42 1435.57 361.42 1435.57 374.88"></polygon>
    <polygon class="cls-1" points="1507.4 435.11 1548.33 435.11 1548.33 422.07 1524.05 422.07 1524.05 404.04 1546.63 404.04 1546.63 391.21 1524.05 391.21 1524.05 374.46 1548.33 374.46 1548.33 361.42 1507.4 361.42 1507.4 435.11"></polygon>
    <path class="cls-1" d="M1626.13,361.42,1618,399c-1.7,8.17-2.65,14-4,23.12h-.32c-1.37-9.12-2.33-14.64-4-22.8l-8.27-37.85h-25.65L1570,435.11h16.32l2.34-41.46c.42-7.63.42-13.57.53-21.31l.1-.11c1.38,7.64,2.65,14,4.25,21.42l8.79,41.46h22.06l8.8-41.46c1.59-7.74,2.86-13.78,4.24-21.42h.1c0,7.74.11,13.89.53,21.32l2.23,41.56h17.28l-5.51-73.69Z"></path>
    <rect class="cls-1" x="1681.31" y="361.42" width="16.65" height="73.69"></rect>
    <polygon class="cls-1" points="467.13 127.56 501.86 127.56 501.86 257.95 545.79 257.95 545.79 127.56 580.52 127.56 580.52 87.87 467.13 87.87 467.13 127.56"></polygon>
    <rect class="cls-1" x="807.29" y="87.87" width="45.35" height="170.08"></rect>
    <path class="cls-1" d="M682.56,83.62c-49.7,0-90,40-90,89.29s40.29,89.3,90,89.3,90-40,90-89.3S732.27,83.62,682.56,83.62Zm0,141c-25.44,0-46.06-23.17-46.06-51.73s20.62-51.74,46.06-51.74,46.07,23.17,46.07,51.74S708,224.65,682.56,224.65Z"></path>
    <polygon class="cls-1" points="929.18 127.56 963.91 127.56 963.91 257.95 1007.84 257.95 1007.84 127.56 1042.57 127.56 1042.57 87.87 929.18 87.87 929.18 127.56"></polygon>
    <rect class="cls-1" x="1269.34" y="87.87" width="45.36" height="170.08"></rect>
    <path class="cls-1" d="M1144.61,83.62c-49.7,0-90,40-90,89.29s40.3,89.3,90,89.3,90-40,90-89.3S1194.32,83.62,1144.61,83.62Zm0,141c-25.44,0-46.06-23.17-46.06-51.73s20.62-51.74,46.06-51.74,46.07,23.17,46.07,51.74S1170.05,224.65,1144.61,224.65Z"></path>
  </g>
</svg>
