<svg xmlns="http://www.w3.org/2000/svg" viewBox="0 0 350.28 182.8"><defs><style>.cls-1{fill:#446264;}.cls-2{fill:#75aa42;}.cls-3{fill:#8bc541;}</style></defs><title>Asset 11</title><g id="Layer_2" data-name="Layer 2"><g id="Layer_1-2" data-name="Layer 1"><path class="cls-1" d="M8.53,155.83A9.2,9.2,0,0,0,9,159.25a5.63,5.63,0,0,0,1.52,2.25,5.77,5.77,0,0,0,2.27,1.22,10.35,10.35,0,0,0,2.82.36,12.13,12.13,0,0,0,3.83-.62,29.37,29.37,0,0,0,3.75-1.54V135.08a.72.72,0,0,1,.65-.76c.29-.05.62-.1,1-.14l1.1-.09,1-.07.66,0c.43,0,.65.23.65.68V165a.7.7,0,0,1-.65.76l-1,.15-1,.11-.91.06h-.62c-.42,0-.63-.22-.65-.67l-.19-2.22a31.63,31.63,0,0,1-5.35,2.34,17.84,17.84,0,0,1-5.67.94A11.52,11.52,0,0,1,8.83,166a7.68,7.68,0,0,1-2.78-1.49,7.06,7.06,0,0,1-1.87-2.56,9,9,0,0,1-.69-3.67V138.57a4.3,4.3,0,0,0-.15-1.23,1.74,1.74,0,0,0-.43-.74,1.58,1.58,0,0,0-.68-.38,3.31,3.31,0,0,0-.88-.11,9.38,9.38,0,0,0-1.19.08L0,134.7c1-.18,1.9-.33,2.78-.46s1.65-.23,2.33-.3l1.69-.16.87-.05a.76.76,0,0,1,.87.87Z"/><path class="cls-1" d="M43.45,149.46a17.2,17.2,0,0,0,3.68-.6,7.3,7.3,0,0,0,2.67-1.34,5.53,5.53,0,0,0,1.62-2.23A8.62,8.62,0,0,0,52,142a6.18,6.18,0,0,0-.6-2.79,5.4,5.4,0,0,0-1.65-2,7.31,7.31,0,0,0-2.49-1.15,12.05,12.05,0,0,0-3.09-.38,5.64,5.64,0,0,0-1.62.18c-.36.12-.54.45-.54,1V165a.7.7,0,0,1-.65.76c-.31.05-.65.11-1,.15l-1.08.11-1,.06H37.6a.59.59,0,0,1-.65-.67V138.22a2.15,2.15,0,0,0-.59-1.8,2.49,2.49,0,0,0-1.55-.45,9.35,9.35,0,0,0-1.19.08l-.16-1.49q2.71-.46,5.62-.77a55.61,55.61,0,0,1,5.94-.31c.87,0,1.78,0,2.74.11a20.85,20.85,0,0,1,2.81.41,14.36,14.36,0,0,1,2.63.83,7.5,7.5,0,0,1,2.18,1.38,6.34,6.34,0,0,1,1.49,2.06,6.78,6.78,0,0,1,.56,2.85,8.46,8.46,0,0,1-.53,3.1,7.73,7.73,0,0,1-1.46,2.37,9.26,9.26,0,0,1-2.18,1.76,16.21,16.21,0,0,1-2.68,1.25v.16a10,10,0,0,1,1.46.42,6.38,6.38,0,0,1,1.53.82,6.69,6.69,0,0,1,1.38,1.34,6.35,6.35,0,0,1,1,2l2,6.21a20,20,0,0,0,.74,2,4,4,0,0,0,.72,1.15,1.84,1.84,0,0,0,.87.52,5.35,5.35,0,0,0,1.22.12l.08,1.41-1.12.2c-.41.06-.81.11-1.21.15l-1.07.1-.72,0a5.35,5.35,0,0,1-1.55-.2,3.05,3.05,0,0,1-1.22-.71,4.62,4.62,0,0,1-1-1.32,11.5,11.5,0,0,1-.77-2.07l-1.92-6.61a8,8,0,0,0-1-2.25,3.86,3.86,0,0,0-1.42-1.29,6,6,0,0,0-2.06-.6q-1.2-.15-2.91-.2Z"/><path class="cls-1" d="M62.62,134.56q2.38-.38,5.18-.73a50.77,50.77,0,0,1,6.28-.35c.87,0,1.77,0,2.72.11a22.53,22.53,0,0,1,2.8.39,13.89,13.89,0,0,1,2.63.82,8.29,8.29,0,0,1,2.21,1.36,6,6,0,0,1,1.52,2,6.7,6.7,0,0,1,.56,2.83,7.22,7.22,0,0,1-.41,2.37,7.78,7.78,0,0,1-1.21,2.22,9.21,9.21,0,0,1-2,1.88,10.24,10.24,0,0,1-2.72,1.35V149q.46.08,1.22.29a10.15,10.15,0,0,1,1.61.6,11.71,11.71,0,0,1,1.72,1,7.71,7.71,0,0,1,1.56,1.44,7.13,7.13,0,0,1,1.12,2,7.23,7.23,0,0,1,.43,2.59,10.37,10.37,0,0,1-.14,1.48,7.77,7.77,0,0,1-.58,1.94,9.35,9.35,0,0,1-1.27,2.07,8.24,8.24,0,0,1-2.21,1.88,12.63,12.63,0,0,1-3.41,1.37,19.54,19.54,0,0,1-4.85.53q-1.28,0-2.26,0l-2-.14c-.64-.05-1.31-.1-2-.13s-1.5-.06-2.43-.06c-.43,0-.65-.22-.65-.68V138.22a2.16,2.16,0,0,0-.6-1.8A2.49,2.49,0,0,0,64,136a9.3,9.3,0,0,0-1.19.08Zm8.53,13.82h1a19.24,19.24,0,0,0,3.93-.35,7.63,7.63,0,0,0,2.78-1.11,4.7,4.7,0,0,0,1.64-2,7.14,7.14,0,0,0,.54-2.94,6.81,6.81,0,0,0-.57-2.92,5.29,5.29,0,0,0-1.59-2A6.69,6.69,0,0,0,76.48,136a13.07,13.07,0,0,0-3.13-.35,6.13,6.13,0,0,0-1.68.16c-.35.11-.52.43-.52,1Zm0,15c.22.05.49.1.83.15l1.07.12,1.18.08c.41,0,.79,0,1.15,0a8.2,8.2,0,0,0,3.3-.58,5.94,5.94,0,0,0,2.11-1.48,5.3,5.3,0,0,0,1.11-1.94,6.5,6.5,0,0,0,.33-1.94,8.33,8.33,0,0,0-.69-3.62,5.5,5.5,0,0,0-2-2.25,7.91,7.91,0,0,0-3-1.14,22.92,22.92,0,0,0-3.91-.31H71.52l-.37,0Z"/><path class="cls-1" d="M96.7,154.36l-4.17,11.24A.56.56,0,0,1,92,166c-.33,0-.7.06-1.11.08l-1.41,0c-.29,0-.43-.09-.43-.27a.32.32,0,0,1,0-.13l12.41-29.74-.57-1.57a1.49,1.49,0,0,1-.05-.29c0-.27.17-.43.51-.49l1-.15,1.12-.12,1-.08.68,0a.83.83,0,0,1,.79.62l12.08,31.1a1.13,1.13,0,0,1,.08.3c0,.31-.18.49-.54.54s-.69.11-1.1.15l-1.19.11-1.07.06h-.7a.61.61,0,0,1-.62-.4l-4.41-11.49Zm.87-2.3h10.16l-5.15-13.43Z"/><path class="cls-1" d="M126.41,133.27a.6.6,0,0,1,.46.17q.16.18.38.45L146,158.73l-.68-24.3c0-.22.14-.33.43-.35s.76-.11,1.3-.16,1.07-.08,1.57-.08c.29,0,.44.13.44.41l-.65,26.41v5c0,.22-.15.34-.43.35s-.69.06-1.09.08l-1.23,0a.66.66,0,0,1-.38-.09,1.11,1.11,0,0,1-.27-.31l-18.85-25,.68,24.92c0,.22-.15.33-.43.35s-.77.1-1.34.14-1.08,0-1.53,0c-.29,0-.44-.13-.44-.41l.68-28.22-2.22-3a.4.4,0,0,1-.11-.3c0-.23.16-.4.49-.49s.66-.11,1.11-.15l1.37-.12,1.26-.08Z"/><path class="cls-1" d="M195.86,164.74a.45.45,0,0,1-.3.43,29,29,0,0,1-4.71,1,37.9,37.9,0,0,1-4.88.31,23.68,23.68,0,0,1-7.39-1.1,16.35,16.35,0,0,1-5.77-3.19,14.4,14.4,0,0,1-3.75-5.17,17.47,17.47,0,0,1-1.34-7,16.94,16.94,0,0,1,1.42-7.15,14.42,14.42,0,0,1,3.93-5.16,17.14,17.14,0,0,1,5.92-3.13,25.1,25.1,0,0,1,7.42-1.05,33.36,33.36,0,0,1,4.33.27q2,.28,4,.7a.63.63,0,0,1,.42.23.9.9,0,0,1,.15.37c0,.25,0,.58.07,1s0,.83.07,1.29,0,.93.07,1.41,0,.92.07,1.33,0,.75,0,1,0,.47,0,.54l-1.36.14a6.06,6.06,0,0,0-1.07-2.87,6.73,6.73,0,0,0-2.1-1.88,9.13,9.13,0,0,0-2.76-1,15,15,0,0,0-3-.31,13.62,13.62,0,0,0-5.24.94,10.17,10.17,0,0,0-3.78,2.64,11.18,11.18,0,0,0-2.27,4.09,17.36,17.36,0,0,0-.76,5.28,19.57,19.57,0,0,0,.95,6.24,13.2,13.2,0,0,0,2.83,4.86,12.77,12.77,0,0,0,4.68,3.16,17.45,17.45,0,0,0,6.52,1.12l1.29,0c.44,0,.9-.05,1.37-.11v-8.5a6.28,6.28,0,0,0-.11-1.27,1.49,1.49,0,0,0-.37-.74,1.38,1.38,0,0,0-.66-.36,4.6,4.6,0,0,0-1-.09h-.82l-.13-1.51,2.69-.18,2.17-.11,1.54-.06h.8a.77.77,0,0,1,.87.87Z"/><path class="cls-1" d="M207.65,154.36l-4.17,11.24a.55.55,0,0,1-.49.35q-.49.05-1.11.08l-1.41,0c-.29,0-.43-.09-.43-.27a.32.32,0,0,1,0-.13l12.41-29.74-.57-1.57a1.39,1.39,0,0,1-.06-.29c0-.27.18-.43.52-.49s.63-.1,1-.15l1.12-.12,1-.08.68,0a.83.83,0,0,1,.79.62L229,164.9a1.14,1.14,0,0,1,.08.3c0,.31-.18.49-.54.54s-.69.11-1.1.15l-1.19.11-1.07.06h-.7a.61.61,0,0,1-.62-.4l-4.41-11.49Zm.87-2.3h10.16l-5.15-13.43Z"/><path class="cls-1" d="M241.31,149.46a17.21,17.21,0,0,0,3.68-.6,7.31,7.31,0,0,0,2.67-1.34,5.57,5.57,0,0,0,1.62-2.23,8.63,8.63,0,0,0,.56-3.27,6.16,6.16,0,0,0-.6-2.79,5.34,5.34,0,0,0-1.65-2,7.28,7.28,0,0,0-2.49-1.15,12.08,12.08,0,0,0-3.09-.38,5.66,5.66,0,0,0-1.62.18c-.36.12-.54.45-.54,1V165a.7.7,0,0,1-.65.76c-.31.05-.65.11-1,.15l-1.08.11-1,.06h-.66a.59.59,0,0,1-.65-.67V138.22a2.16,2.16,0,0,0-.6-1.8,2.5,2.5,0,0,0-1.54-.45,9.32,9.32,0,0,0-1.19.08l-.17-1.49q2.71-.46,5.62-.77a55.64,55.64,0,0,1,5.95-.31c.86,0,1.78,0,2.73.11a20.91,20.91,0,0,1,2.82.41,14.37,14.37,0,0,1,2.63.83,7.5,7.5,0,0,1,2.18,1.38,6.33,6.33,0,0,1,1.49,2.06,6.72,6.72,0,0,1,.56,2.85,8.46,8.46,0,0,1-.53,3.1,7.78,7.78,0,0,1-1.46,2.37,9.29,9.29,0,0,1-2.18,1.76,16.33,16.33,0,0,1-2.68,1.25v.16a10,10,0,0,1,1.46.42,6.35,6.35,0,0,1,1.53.82,6.67,6.67,0,0,1,1.38,1.34,6.27,6.27,0,0,1,1,2l2,6.21a19.57,19.57,0,0,0,.75,2,3.94,3.94,0,0,0,.72,1.15,1.83,1.83,0,0,0,.86.52,5.39,5.39,0,0,0,1.22.12l.08,1.41-1.12.2c-.41.06-.81.11-1.2.15l-1.07.1-.72,0a5.36,5.36,0,0,1-1.55-.2,3,3,0,0,1-1.22-.71,4.61,4.61,0,0,1-1-1.32,11.92,11.92,0,0,1-.77-2.07l-1.93-6.61a8,8,0,0,0-1-2.25,3.88,3.88,0,0,0-1.42-1.29,6,6,0,0,0-2.06-.6q-1.21-.15-2.91-.2Z"/><path class="cls-1" d="M264.64,165.71c-.43,0-.65-.22-.65-.68V138.3a2.2,2.2,0,0,0-.59-1.83,2.52,2.52,0,0,0-1.55-.45,9.47,9.47,0,0,0-1.19.08l-.16-1.46q3-.52,6.14-.83t6.22-.31a42.18,42.18,0,0,1,5.08.3,25,25,0,0,1,4.66,1,17.15,17.15,0,0,1,4,1.87,12,12,0,0,1,3.13,2.9,13.07,13.07,0,0,1,2,4.09,18.38,18.38,0,0,1,.73,5.44,17.38,17.38,0,0,1-1.45,7.27,15.23,15.23,0,0,1-4,5.38,17.72,17.72,0,0,1-6.15,3.33,25.32,25.32,0,0,1-7.76,1.14c-.81,0-1.53,0-2.16-.08l-1.85-.18-2-.18Q266.07,165.72,264.64,165.71Zm4.39-2.17a14.41,14.41,0,0,0,2.09.34c.7.06,1.44.09,2.19.09a15.86,15.86,0,0,0,5.8-1,11.41,11.41,0,0,0,4.28-2.83,12.27,12.27,0,0,0,2.64-4.47,18.08,18.08,0,0,0,.91-5.91,16.53,16.53,0,0,0-.94-5.69,12.35,12.35,0,0,0-2.72-4.43,12.07,12.07,0,0,0-4.39-2.87,16.16,16.16,0,0,0-5.93-1h-1.38a6.7,6.7,0,0,0-1.88.2c-.44.13-.67.5-.67,1.1Z"/><path class="cls-1" d="M303.75,161.51a8.89,8.89,0,0,0,0,1,1,1,0,0,0,.21.57.91.91,0,0,0,.58.26,8.63,8.63,0,0,0,1.14.06h3.49c1.44,0,2.62,0,3.52-.09a5.43,5.43,0,0,0,2.3-.62,4.68,4.68,0,0,0,1.67-1.68,24.22,24.22,0,0,0,1.61-3.26l1.36.3a9.42,9.42,0,0,1-.12,1c-.08.52-.18,1.13-.31,1.83s-.27,1.41-.43,2.13-.33,1.35-.49,1.9a1.31,1.31,0,0,1-1.33.92h-2.38l-3.08,0-3.63,0h-8.55a.55.55,0,0,1-.52-.23.9.9,0,0,1-.13-.45V139a2.14,2.14,0,0,0-.63-1.83,2.57,2.57,0,0,0-1.54-.45,8.84,8.84,0,0,0-1.16.08l-.16-1.49c.38-.07.93-.17,1.66-.27l2.26-.33q1.18-.16,2.28-.27c.73-.07,1.3-.11,1.72-.11h11.78l2.22,0a.43.43,0,0,1,.49.41l.07,1c0,.41,0,.87.07,1.35s0,1,.07,1.49,0,1,.07,1.41,0,.8,0,1.11,0,.5,0,.57l-1.36.13a17.47,17.47,0,0,0-.94-3,3.55,3.55,0,0,0-1.2-1.54,3.93,3.93,0,0,0-1.86-.58c-.75-.06-1.72-.09-2.91-.09h-4.77a6,6,0,0,0-.69,0,.54.54,0,0,0-.34.14.47.47,0,0,0-.13.31c0,.13,0,.32,0,.55v11l4.08-.2,3.22-.16,2.21-.11,1,0c.5,0,.76.27.76.81,0,.35,0,.7-.05,1.06s-.08.75-.13,1.16l-11.11-.38Z"/><path class="cls-1" d="M327.67,133.27a.59.59,0,0,1,.46.17c.11.12.24.27.38.45l18.71,24.84-.68-24.3c0-.22.14-.33.43-.35s.76-.11,1.3-.16,1.07-.08,1.57-.08c.29,0,.43.13.43.41l-.65,26.41v5c0,.22-.15.34-.43.35s-.69.06-1.1.08l-1.23,0a.66.66,0,0,1-.38-.09,1.11,1.11,0,0,1-.27-.31l-18.85-25,.68,24.92c0,.22-.15.33-.43.35s-.77.1-1.34.14-1.08,0-1.53,0c-.29,0-.44-.13-.44-.41l.68-28.22-2.22-3a.41.41,0,0,1-.11-.3c0-.23.16-.4.49-.49s.66-.11,1.11-.15l1.37-.12,1.26-.08Z"/><circle class="cls-2" cx="135.11" cy="74.03" r="10.07"/><circle class="cls-3" cx="136.22" cy="73.21" r="10.07"/><path class="cls-1" d="M135.09,115.32l2.64.12s-.7-41.95-1.35-42.71S135.09,115.32,135.09,115.32Z"/><circle class="cls-2" cx="210.05" cy="74.71" r="10.07"/><circle class="cls-3" cx="211.16" cy="73.89" r="10.07"/><path class="cls-1" d="M210,115l2.63.12s-.7-39.91-1.34-40.67S210,115,210,115Z"/><circle class="cls-2" cx="161" cy="83.85" r="7"/><circle class="cls-3" cx="161.77" cy="83.28" r="7"/><path class="cls-1" d="M159.86,114.16l1.88.08s-.5-28.23-1-28.78S159.86,114.16,159.86,114.16Z"/><circle class="cls-2" cx="197.79" cy="48.36" r="13.13"/><circle class="cls-3" cx="199.24" cy="47.29" r="13.14"/><path class="cls-1" d="M197.33,114.25l3.67.16s-1-62.08-1.87-63.14S197.33,114.25,197.33,114.25Z"/><circle class="cls-2" cx="147.11" cy="45.26" r="18.66"/><circle class="cls-3" cx="149.17" cy="43.74" r="18.67"/><path class="cls-1" d="M147.06,114.22l4.34.19s-1.16-69.51-2.22-70.76S147.06,114.22,147.06,114.22Z"/><circle class="cls-2" cx="184.74" cy="70.29" r="9.58"/><circle class="cls-3" cx="186.74" cy="69.51" r="9.59"/><path class="cls-1" d="M187.39,113.62l-2.68.12s.72-40.54,1.37-41.32S187.39,113.62,187.39,113.62Z"/><circle class="cls-2" cx="168.77" cy="31.76" r="21.97"/><circle class="cls-3" cx="171.2" cy="21.97" r="21.97"/><path class="cls-1" d="M169.54,112.8l5.75.26s-1.42-81-2.82-82.7S169.54,112.8,169.54,112.8Z"/><path class="cls-1" d="M121.41,116.66c3-2.64,91-8.34,108.67.17,4.67,2.25-20.61.51-50.59,1-20.95.36-15.33-.17-55.53,2.22C120.31,120.28,119.88,118,121.41,116.66Z"/><polygon class="cls-1" points="262.63 182.79 90.63 182.79 90.63 181.94 176.31 180.64 262.63 181.94 262.63 182.79"/></g></g></svg>